<svg enable-background="new 0 0 512 512" viewBox="0 0 512 512" xmlns="http://www.w3.org/2000/svg"><path d="m488.727 0h-186.182c-12.853 0-23.273 10.42-23.273 23.273s10.42 23.273 23.273 23.273h129.997l-239.543 239.544c-9.089 9.089-9.089 23.823 0 32.912 4.543 4.544 10.499 6.816 16.455 6.816s11.913-2.271 16.457-6.817l239.544-239.543v129.997c0 12.853 10.42 23.273 23.273 23.273s23.273-10.42 23.273-23.273v-186.182c-.001-12.853-10.421-23.273-23.274-23.273z"/><path d="m395.636 232.727c-12.853 0-23.273 10.42-23.273 23.273v209.455h-325.818v-325.819h209.455c12.853 0 23.273-10.42 23.273-23.273s-10.42-23.272-23.273-23.272h-232.727c-12.853 0-23.273 10.42-23.273 23.273v372.364c0 12.852 10.42 23.272 23.273 23.272h372.364c12.853 0 23.273-10.42 23.273-23.273v-232.727c-.001-12.853-10.421-23.273-23.274-23.273z"/></svg>