<svg xmlns="http://www.w3.org/2000/svg" viewBox="0 0 840 210"><defs><style>.cls-1{fill:#02d174;}.cls-2{fill:#ff5454;}.cls-3{fill:#ffbe1a;}.cls-4{fill:#333;}</style></defs><title>ui_foria_logo_black</title><g id="Layer_2" data-name="Layer 2"><g id="Layer_2-2" data-name="Layer 2"><path class="cls-1" d="M592,0a32,32,0,1,0,32,32A32,32,0,0,0,592,0Zm0,56a24,24,0,1,1,24-24A24,24,0,0,1,592,56Zm4-40h-8V28H576v8h12V48h8V36h12V28H596Z"/><path class="cls-2" d="M752,0a32,32,0,1,0,32,32A32,32,0,0,0,752,0Zm0,56a24,24,0,1,1,24-24A24,24,0,0,1,752,56Zm8.48-38.14L752,26.34l-8.48-8.48-5.66,5.66L746.34,32l-8.48,8.48,5.66,5.66L752,37.66l8.48,8.48,5.66-5.66L757.66,32l8.48-8.48Z"/><path class="cls-3" d="M672,0a32,32,0,1,0,32,32A32,32,0,0,0,672,0Zm0,56a24,24,0,1,1,24-24A24,24,0,0,1,672,56ZM656,36h32V28H656Z"/><path class="cls-4" d="M304,72a16,16,0,0,1,16-16h80V8H320a64.07,64.07,0,0,0-64,64V208h48V128h64V80H304Zm144,6a66,66,0,1,0,66,66A66.08,66.08,0,0,0,448,78Zm4,82-20,20V112l48,48ZM192,208h48V8H192Zm456,0h48V80H648ZM528,144v64h48V144a16,16,0,0,1,16-16h40V80H592A64.07,64.07,0,0,0,528,144ZM128,120a40,40,0,0,1-80,0V8H0V120a88,88,0,0,0,176,0V8H128ZM768,80a64,64,0,0,0,0,128h72V80Zm24,80H768a16,16,0,0,1,0-32h24Z"/></g></g></svg>